<svg width="20" height="20" viewBox="0 0 20 20" fill="none" xmlns="http://www.w3.org/2000/svg">
<path d="M20 10C20 15.5228 15.5228 20 10 20C4.47715 20 0 15.5228 0 10C0 4.47715 4.47715 0 10 0C15.5228 0 20 4.47715 20 10Z" fill="#9070C0"/>
<path d="M14.1347 5.31882C14.3421 5.11207 14.618 4.99776 14.9043 5.00003C15.1906 5.0023 15.4649 5.12096 15.6692 5.33098C15.8736 5.541 15.992 5.82594 15.9996 6.12569C16.0072 6.42543 15.9033 6.71653 15.7098 6.93756L9.83628 14.6305C9.73529 14.7444 9.61339 14.8358 9.47788 14.8993C9.34238 14.9627 9.19604 14.9969 9.04763 14.9998C8.89922 15.0027 8.75177 14.9742 8.61412 14.916C8.47646 14.8579 8.35141 14.7712 8.24646 14.6613L4.35139 10.5821C4.24292 10.4762 4.15592 10.3485 4.09558 10.2067C4.03523 10.0649 4.00279 9.91178 4.00017 9.75653C3.99756 9.60128 4.02483 9.44707 4.08035 9.30309C4.13588 9.15912 4.21853 9.02834 4.32337 8.91854C4.42821 8.80875 4.55309 8.72219 4.69056 8.66404C4.82803 8.60588 4.97528 8.57732 5.12352 8.58006C5.27176 8.5828 5.41796 8.61678 5.55338 8.67998C5.68881 8.74318 5.8107 8.83429 5.91177 8.94789L8.99426 12.1746L14.1067 5.35274L14.1347 5.31882Z" fill="#F5F5F5"/>
</svg>
